# xmcd CD database file
#
# Track frame offsets:
#	150
#	991
#	21680
#	37660
#	54156
#	74410
#	88628
#	106009
#	127940
#	144604
#	144912
#	157779
#	175090
#	190245
#	205888
#	223915
#	244497
#
# Disc length: 3285 seconds
#
# Revision: 0
# Processed by: cddbd v1.5.2PL0 Copyright (c) Steve Scherf et al.
# Submitted via: CDex 1.51
#
DISCID=e20cd311
DTITLE=The Polyjesters - Kitchen Radio
DYEAR=2008
DGENRE=Jazz
TTITLE0=Kitchen Radio 1
TTITLE1=Tuesday
TTITLE2=Manjula
TTITLE3=The Devil Came Up To Alberta
TTITLE4=Koto
TTITLE5=To Boot
TTITLE6=Cuckoo Birds
TTITLE7=Emma's Lullaby
TTITLE8=The Wonder
TTITLE9=Kitchen Radio 2
TTITLE10=Fruitbat
TTITLE11=Countryside
TTITLE12=Black Cafe
TTITLE13=The Driving Song
TTITLE14=Orange Alberta Moon
TTITLE15=Believe Me
TTITLE16=Kitchen Radio 3
EXTD=YEAR: 2008
EXTT0=
EXTT1=
EXTT2=
EXTT3=
EXTT4=
EXTT5=
EXTT6=
EXTT7=
EXTT8=
EXTT9=
EXTT10=
EXTT11=
EXTT12=
EXTT13=
EXTT14=
EXTT15=
EXTT16=
PLAYORDER=
